<svg xmlns="http://www.w3.org/2000/svg" width="485" height="707" viewBox="0 0 485 707">
  <path id="Caminho_1" data-name="Caminho 1" d="M34.591,745.74c-71.018-16.505-140.944-71.522-170.444-134.791-23.49-50.065-25.675-74.272-23.49-237.671,1.639-144.694,2.185-155.147,14.2-184.856C-111.269,102.6-33.7,49.23,65.183,42.628c126.194-8.252,229.989,65.47,254.573,180.455,4.37,20.356,6.009,79.223,4.916,184.305-2.185,146.344-2.731,155.147-14.75,185.956C284.793,656.613,224.154,714.93,162.97,734.186,120.9,747.94,65.729,752.892,34.591,745.74ZM22.572,702.277C-35.881,681.92-79.584,642.859-105.26,586.742c-12.565-27.508-14.75-38.512-15.843-102.331l-1.639-71.521,12.565,15.954c6.556,9.353,24.583,31.36,39.88,48.965C24.211,590.593,54.257,639.008,60.266,689.073,63.544,716.031,63,716.031,22.572,702.277Zm81.4,4.4C97.961,696.225,122.544,626.9,144.4,593.344c12.018-18.706,38.786-53.366,59.546-77.023s46.981-55.567,58.453-70.422c11.472-15.4,21.852-29.158,22.944-30.259,1.639-1.65,2.185,29.159,1.093,68.771-1.639,64.92-3.278,74.272-17.482,105.632-16.388,35.761-57.907,80.874-90.138,96.829C149.859,702.277,107.248,713.28,103.97,706.678ZM44.424,562.535c-7.648-12.654-34.963-47.865-60.639-78.124-79.759-92.978-105.98-143.043-105.98-200.26,0-72.072,70.472-121.036,130.564-90.227,24.583,12.1,41.518,43.463,50.259,90.777l6.556,37.962-33.87,33.56-33.324,34.11,32.778,34.66,32.778,34.661-2.731,63.269-2.732,63.269ZM-62.1,308.908c-16.389-18.7-14.75-49.515,3.278-63.819,31.685-24.757,73.2-6.052,73.2,33.56C14.378,317.161-37.52,337.517-62.1,308.908ZM101.785,521.272V456.353l32.777-33.01,32.778-32.46-33.87-34.11-33.324-34.11L106.155,288c3.278-19.256,12.019-45.664,18.574-58.868,41.518-81.424,162.249-42.912,162.249,51.716.546,59.418-26.222,112.234-97.786,194.208-21.306,24.758-49.713,59.968-62.824,78.124l-24.583,33.01Zm60.092-214.014c-15.3-19.806-14.2-43.463,2.185-59.968,28.407-28.609,74.3-9.353,74.3,31.359C238.358,318.261,184.821,338.067,161.877,307.258ZM65.729,405.187l-13.657-15.4,15.842-14.855,15.3-14.854,14.75,16.505,14.75,17.055L96.322,407.388,79.933,421.142ZM58.081,184.571c0-2.751-12.018-12.1-25.676-20.356-27.315-15.955-69.379-20.356-102.7-11l-16.389,4.4,19.12-19.806c22.4-23.657,74.842-50.615,107.62-56.117l23.491-3.3v55.567c0,30.809-1.639,56.117-2.731,56.117C59.174,190.073,58.081,187.322,58.081,184.571Zm43.7-50.615V78.389l22.944,3.3c32.778,5.5,85.222,32.46,108.166,56.117l19.12,19.806-16.389-4.4c-44.249-12.1-96.693-1.1-122.915,25.857C101.785,190.073,101.785,190.073,101.785,133.956Z" transform="translate(160 -42)" fill="rgba(128,70,39,0.03)" fill-rule="evenodd"/>
</svg>
