<svg xmlns="http://www.w3.org/2000/svg" width="323.585" height="248.635" viewBox="0 0 323.585 248.635">
  <g id="Grupo_49" data-name="Grupo 49" transform="translate(-25 -318)">
    <path id="Caminho_204" data-name="Caminho 204" d="M125.875,430.928q1.767,17.832,3.532,35.665l19.232-10.974v34.2c0,.63-.374,2.794,0,3.339.317.463,2.666.476,3.221.554q5.438.762,10.9,1.361c9.589,1.059,19.853,2.576,29.478,1.359,8.367-1.058,16.479-4.033,24.123-7.5q4.026-1.824,7.928-3.908c.55-.3,2.549-.991,2.849-1.591.244-.49-.33-2.212-.406-2.728l-.969-6.516-4.512-30.333,8.523,8.51c.668.667,1.935,2.56,2.859,2.855.678.217,2.355-.454,3.025-.582q7.237-1.395,14.477-2.79c1.124-.217,3.658-.209,4.606-.888.51-.366.534-1.11.714-1.816l3.531-13.833c.212-.83,1.4-3.449,1.094-4.285-.108-.3-.629-.5-.949-.7l-21.85-13.345-11.97-7.311c-1.671-1.021-3.724-2.861-5.618-3.432a17.553,17.553,0,0,0-4.1-.123l-7.416-.212c-.387-.011-1.743-.287-2.068-.059-.272.19-.159.454-.248.907-.217,1.1-.219,2.3-.326,3.416-.086.9.085,2.55-.321,3.365-.259.52.07.313-.281.564-.417.3-1.749.2-2.246.261l-7.267.844c-2.88.335-5.792.962-8.686.673-4.387-.438-9.117-.416-13.424-1.34-1.119-.24-1.523-.871-2.386-1.733-1.686-1.683-3.354-3.386-5.058-5.051-.835-.816-.477-.678-1.338-.368a19.842,19.842,0,0,0-3.15,1.918l-11.224,6.837L127.3,430.057Z" fill="#834825" fill-rule="evenodd"/>
    <path id="Caminho_205" data-name="Caminho 205" d="M344.356,432.406c-4.709,17.877-14.179,37.369-33.259,43.067-4.638,1.385-9.151,2.431-13.969,1.9a9.335,9.335,0,0,0-1.278.023c-.782.015-.107.3-.983.025-.684-.211-1.323-.739-2.035-.972-1.893-.619-3.912-.739-5.836-1.24-4.728-1.23-9.6-2.748-14.181-4.444a52.177,52.177,0,0,1-6.168-2.981c-2.063-1.087-4.249-1.762-6.334-2.759-1.649-.788-4.473-1.816-5.631-3.294-1.236-1.577.473-4.934.962-6.61,1.662-5.7,3.641-11.324,4.89-17.141,4.313,5,10.3,8.093,16.495,10.089a61.5,61.5,0,0,0,10.317,2.357c3.176.444,6.6.983,9.783.351,2.4-.477,5.419-1.581,7.135-3.415.612-.654,1.347-1.855,1-2.8-.435-1.208-1.7-.639-2.391-1.54-.6-.785-.5-2.62-.7-3.576a37.4,37.4,0,0,0-1.366-4.964c-1.1-3.161-2.466-6.329-2.794-9.692a13.571,13.571,0,0,1,1.836-8.21c.687-1.2,2.415-4.453,4.1-4.318,1.852.149-.645,7.952-.727,9.543-.323,6.31.523,13.034,3.761,18.564,1.239,2.118,3.033,4.584,5.679,4.846,2.8.278,5.066-1.928,6.4-4.16,3.256-5.446,1.615-12.918-.034-18.625-2.023-7-7.3-11.829-10.642-18.117,4.985.5,7.654,3.667,10.212,7.684a46.187,46.187,0,0,1,6.09,14.88c.546,2.6.169,5.211.172,7.836,0,.872,0,4.09,1.423,3.964,1.52-.136,2.041-3.765,2.265-4.872.512-2.54,1.067-5.08,1.512-7.632.787-4.515,1.137-9.14,2.08-13.624.159-.758.477-2.861,1.612-2.293.874.437.734,3.69.766,4.446.079,1.863.189,3.726.2,5.591.022,2.764-.529,5.625-.258,8.373.176,1.8,1.14,3.778,2.334,1.357,1.184-2.4,1.426-5.395,2.086-7.977a28.212,28.212,0,0,1,2.882-7.869c.409-.668.848-1.728,1.756-1.414.659.229,1.146,1.792,1.35,2.343.92,2.494.763,5.266.7,7.876A40.232,40.232,0,0,1,344.356,432.406Zm-91.819,4.639a14.35,14.35,0,0,0-1.586-.206c-.31-.027.042-.6-.71-.436a1.2,1.2,0,0,0,.774.72c-1.131.382-1.965-.562-2.738-.684-.739-.116-.771,0-1.5.781-.791-.964-.642-.363-1.293-.362-.236,0-.247.358-.632.315-.336-.038-.371-.548-.57-.608-1.079-.327-2.189,1.317-3.413-.109-.3,1.483-3.694-.374-5-.114-1.37.273-.779.764-1.886-.075-1.055-.8-.761-.269-1.989.386.029-.016-.692.472-.625.48-.85-.1-.8-.978-1.878-.931-1.139.049-1.625.942-2.667-.157-.227.823-.274.468-.808.676a.77.77,0,0,1-.771-.232.56.56,0,0,1-.441.416,4.9,4.9,0,0,1-2.2-.147c-.793-.42-.155-.582-.705-1.054-.247,1.3-.787,1.026-1.926,1.148-.869.093-1.06-.174-1.89-.3a9.214,9.214,0,0,0-2.672.324c-.329.057-.77.286-1.105.205-.3-.072-.431-.307-.612-.368-.218-.074-.172-.265-.55-.358-.261-.064-.728.181-.989.223a9.692,9.692,0,0,1-5.418-.426c.873,1.535-2.042.706-2.561.071-.65,1.017-1.436.3-2.745.378-1.261.077-3.157.463-3.668-1.107a4.134,4.134,0,0,1-1.1,1.386c-.826.41-.925-.2-1.693-.443-1.046-.336-.828.3-1.476.432-1.1.219-1.687-.552-2.654-.962-.041.637-.062,1.029-.613,1.426-.488-1.777-2.229.145-1.93-2.229-.663.431-1.6.763-1.783,1.635,1.107-.3.118.419.071.443-.146.077-.641-.617-.755-.715q-.048.49-.094.983c-.442-.221-.856-.616-1.214-.814-.323-.179.14-.55-.406-.575-.287-.014-.587.609-.888.662-.462.08-.24-.581-.433-.559-.294.034-.773.464-1,.456-.729-.027-.235-.367-.792-.522-.994-.279-.93.372-1.645.606-1.635.537-1.471-1.933-3.135-.286-.4.394-.654,1-1.2.969-1.129-.071-.733-1.409-.5-2.065.237.117-4.126,2.358-4.091,2.271.027-.538.713-.952.1-1.429-.5,1.075-1.029,1.094-2.185,1.295-.562.1-.673.227-1.274-.007-.384-.148-.641-.759-1.022-.793a4.74,4.74,0,0,1-.755.585c-.631.284-1.03-.038-1.643.079-.523.1-.729.544-1.249.422-.695-.162-.287-.991-1.242-.76-.327.079-.523.708-1.037.838-.8.2-1.785-.175-2.632.022a9.473,9.473,0,0,1-1.761.256c-.475.027-.28-.342-1.154.094l-.372-.935-1.313,1.181a6.358,6.358,0,0,1-.158-1.072,3.381,3.381,0,0,1-2.354.824,20.332,20.332,0,0,0-2.584.445,3.561,3.561,0,0,1-1.287.04c.036.015-.449-.187-.3-.148-.063-.128-.122-.259-.176-.392q-.123-.554-.795-.048c-.233-.036-.683-.34-.914-.265-.6.193-.515.656-1.11.588-.386-.044-.583-.614-.984-.653-.615-.059-1.148.629-1.7.779,1.684-.457-2.184-.1-.981-.071a4.939,4.939,0,0,0-2.336.294c-.4-.276.086-.829-.321-1.057-.369-.206-.4.339-.44.351.232-.066.116.4-.117.481a1.063,1.063,0,0,1-1.344-1.045c-.616.928-.789.554-1.7.612s-1.666.525-2.561.517c-1.769-.017-2.97-.632-3.561-2.212,1.886.229,3.784-.983,5.628-.7.606.093.984.549,1.515.468.654-.1,1.111-.813,1.95-.89,1.849-.169,3.673,0,5.536-.288a30.685,30.685,0,0,1,6.793-.375c1.735.128,3.141-.536,4.9-.663,2.276-.166,4.571-.2,6.851-.315a71.518,71.518,0,0,1,7.2-.377,17.9,17.9,0,0,0,2.08.065c.306-.018.6-.226.918-.2.418.04.6.468,1.031.454.738-.026,1.526-.633,2.4-.65,1.441-.027,2.876-.024,4.321-.106,1.272-.072,2.635-.369,3.9-.353.893.011,1.114.772,1.634.851.936.141,5.671-2.553,6.08-.135,2.465-1.687,5.771-.259,8.514-.576,3.525-.407,7.115-.044,10.663-.189a81.461,81.461,0,0,1,10.923.33,28.821,28.821,0,0,0,4.423.187,7.714,7.714,0,0,1,2.1-.054c.161.037,1.4.9,1.243.924.675-.606.218-.694,1.4-.726.915-.023,1.78.174,2.69.228,1.633.1,3.278-.13,4.907-.08,1.361.042,2.691.242,4.059.252,1.474.011,3.215.053,4.281,1.241q-.168-.559-.338-1.119c1.646.128,3.272.716,4.936.441a2.94,2.94,0,0,0-1.009,1.324c.9-.114,1.5-.74,2.449-.745.793-.005.958.393,1.795-.121.1.63.206,1.26.31,1.889,1.16-.273.4-1.138.483-1.917.943.283,1.741-.042,1.37,1.314A2.066,2.066,0,0,1,252.537,437.045Zm-1.63,11.646c-.4,1.136-3.9.487-4.73.367-1.069-.155-2.292-.4-3.276-.522a1.738,1.738,0,0,0-.424-.4,1.02,1.02,0,0,1-.47.367c-.452.1-.454.565-1.048.462-.027.691.452.3.82.549-.926.62-.5-.094-1.022-.083a.506.506,0,0,0-.538-.215,2.48,2.48,0,0,0-.809.376q-.347.367-.6.038a1.027,1.027,0,0,0-.579-.294c-.912.148-1.167.553-2.194.487-1.467-.1-3.055.292-4.5.088-.9-.126-2.391-1.532-2.8-.161-.619-1.017-1.6-1.708-2.2-2.747,2.76-.159,5.519-.349,8.282-.449,2.418-.087,5.064.185,7.324.071,2.118-.107,4.36-.341,6.522-.534C250.969,445.885,251.727,446.388,250.907,448.691Zm-72.009.168c1,.277,1.956-.352,2.928-.153.322.066.987.651,1.133.662.268.022,1.055-.553,1.392-.63a20.118,20.118,0,0,1,6.856-.135c1.131.158,1.3-.36,2.292-.611a22.255,22.255,0,0,1,3.565-.133c2.542-.17,5.083-.049,7.608-.235,2.592-.19,5.171-.294,7.764-.427,1.767-.091,6.012-1.1,7.476.213,1.207,1.081-.348,2.958-1.556,3.387-.9.319-1.335-.355-2.006-.29-.763.073-.5.975-1.179.138-.422.832-3.076.478-3.836.533-1.658.119-3.06.452-4.188-1.094q.114.669.229,1.338a6.269,6.269,0,0,0-4.4-.265c-.643.138-2.617,1.091-3.314.68-.479-.283.366-.767-.443-1.008-.424-.127-1.156.577-1.674.542-1.433-.1-1.026-1.063-2.434.164a2.014,2.014,0,0,1-.573-1.715c-1.022.873-.937,2.327-2.765,2.06-.682-.1-.807-.794-1.162-.922-.757-.273-.843.218-1.5.607a2.39,2.39,0,0,1-.841.412.987.987,0,0,1-.775-.206,3.291,3.291,0,0,1-1.373.1c-.424-.13-.548-.878-1.295-.7-.715.168-.721.654-.591,1.38a3.068,3.068,0,0,1-1.66-.891c-.532,1.243-1.654.214-2.274,1.262-.808-.965-1.326-.7-2.328-1.641l.147,1.179c-.782-.151-1.13-.7-1.8.027-.648-1.206-2.612.513-3.62-.652-.45,1.476-3.424,1.123-4.681,1.148a13.015,13.015,0,0,0-3.025.19,10.66,10.66,0,0,1-3.2.361,8.339,8.339,0,0,0-1.972-.1c-1.061.115-1.977.664-3.077.4-1.655-.391-2.669-2.565-.826-3.52,1.262-.653,3.534-.411,4.923-.532a44.265,44.265,0,0,1,7.182-.428,28.792,28.792,0,0,0,5.269-.461c1.38-.137,3.642-.382,4.543.986C178.189,449.485,178.153,448.653,178.9,448.859Zm-25.186,18.726c-.247-1.231,10.271-1.908,11.315-1.989,2.192-.168,4.39-.289,6.587-.345a40.555,40.555,0,0,0,5.3.022c1.687-.259,3.723-.79,5.192.4.216-1.634,6.547-.838,7.752-.833,5.243.019,10.261.031,15.333-.294a79.754,79.754,0,0,1,8.875-.29,12.24,12.24,0,0,0,3.662.111c.848-.2,1.762-.607,2.573-.027a3.6,3.6,0,0,1,.7,3.948c-.476.7-.9.624-1.659.5a5.393,5.393,0,0,0-3.232.019c.193-.077-.8.144-.717.138-1.351.1-3.2,1.045-4.368-.043.466.082,1.144-.751.556-.82-.442-.051-.722.422-1.067.581-1.179.542-1.782.373-2.486-.765-1.42,1.229-1.573.889-2.2-.624-.48.369-.583,1.243-.961,1.53-.056.043.176.574-.1.552-.253-.021-.336-.435-.531-.468-.124-.021-.189-.385-.307-.407s-.262.208-.408.2c-.39-.019-1.506.812-1.106-.354-.591.752-.845.273-1.059-.411l-2.047,1.556c-.318-.882-.864-.642-1.551-.334.207-.613.077-1.193-.442-.766-.3.246-.5,1.029-.811,1.362-1.246-1.262-1.7-.916-3.42-.752a3.166,3.166,0,0,1-2.061-.213c-.516-.349-.808-1.629-1.691-.6.2-.23-.111,1.537-.166,1.818a3.852,3.852,0,0,1-.992-.968c-.508,1.006-1.841.1-2.934.309-1.72.324-3.494.868-5.013-.412-.108.414-1.352.94-1.354.956.074-.732.536-.474-.407-.613-.174-.026-.371.286-.535.32a8.012,8.012,0,0,1-1.785-.01,60.93,60.93,0,0,0-6.842.644,5.614,5.614,0,0,1-2.451-.107c-.759-.3-.738-.651-1.506-.455.243-.062-.48.7-.44.669-.1.075-.534-.3-.687-.268-.045.162-.089.324-.134.486l-.555-.069c-.506.068-.963-.444-1.438-.461.087,0-1.283.513-1.221.544-.957-.477-.682-.339-1.9-.048-1.147.274-2.289.21-3.467.382C152.093,471.4,154.133,469.681,153.712,467.585ZM150.688,484.7c-.644-.913,1.069-1.229,1.616-1.31.9-.132,2.094.132,2.694-.011a27.046,27.046,0,0,1,2.822-.877c1.3-.177,2.6-.206,3.908-.317a10.889,10.889,0,0,1,1.394-.161c.628.037.89.37,1.4.372a28.5,28.5,0,0,0,2.818-.641c1.135-.129,2.281-.189,3.421-.246,2.4-.119,4.781-.07,7.182-.072,1.1,0,4.013-1.139,4.559.136.759-.966,2.707-.834,3.793-.862,1.912-.049,3.8-.234,5.715-.323,1.636-.076,3.465.274,5.072.029a5.894,5.894,0,0,1,2.183-.291c.746.1,1.883-.3,2.524-.125-.034-.009.8.507.539.523.286-.018.269.182.584.093.415-.117.224-.638,1.083-.823,1.338-.289,3.124.046,4.515-.029q2.023-.107,4.047-.1a11.3,11.3,0,0,1,2-.025c.3.06.926.447,1.177.408.712-.111,1.075-.606,2.037-.575a28.392,28.392,0,0,0,3.157-.064c1.05-.08,1.219-.23,1.74.644s.658,1.995-.292,2.585c.617-.041,1.376.785.649,1.242-.449.283-1.35-.355-1.888-.309-.662.057-1.182.407-1.9.429-.759.023-1.528.214-2.276.229-.778.015-1.367-.333-2.106-.185-.65.131-.719.663-1.5.2-.389-.233-.455-1.095-.985-1.1-.711-.011-.428.908-.836,1.333-.11-1.313-1.124.86-1.528-.734-.371.529-1.747,1.27-2.414.844-.607-.387-.406-1.265-.659-1.9-.421,1.136-1.552,2.315-1.449.247-.549.676-2.033.569-1.661,1.752-.448-.009-.554-.648-.93-.7-.325-.041-.583.208-.633.2.178.015-.532.252-.543.254.481-.1-1.388-.264-1.069-.261-.434,0-.965.351-1.471.35a12.645,12.645,0,0,1-1.377-.235c-1.182-.135-.936.125-1.678.5-.275.137-.344.37-.734.341-.288-.022-.4-.4-.429-.4-.4-.04-.106-.176-.735-.114-.072.125-.143.248-.216.372a.691.691,0,0,1-.883.219c-.931.2-4.017,1.064-3.715-.538l-1.418.694c-.2-1.292-2.773.421-3.346.508-.737.11-.8-.173-1.5-.323-.125-.027-.377.387-.671.328-.764-.154-.9-.23-1.031-1.06-.544,1.018-1,.563-1.985.73-.218.038-.358.468-.672.394-.226-.054-.232-.467-.388-.52-.14-.049-.119-.375-.326-.421-.237-.053-1.045.609-1.277.711a3.916,3.916,0,0,1-1.892.5c-.631-.141-.35-.609-1.241-.556-1.407.082-1.994,1.279-2.869-.607-.4.756-.345.961-.979,1.21a8.422,8.422,0,0,1-2.273-.031c-2.637-.1-5.228.8-7.842.566a12.336,12.336,0,0,0-3.278-.146c-1.218.2-2.41.489-3.646.606-.628.059-1.942.24-2.25-.564C150.242,485.991,151.255,485.509,150.688,484.7Zm5.169,29c-3.419,2.287-6.25,5.411-9.39,8.055a113.767,113.767,0,0,0-8.476,8.536,47.039,47.039,0,0,1-8.185,7.334c-2,1.3-3.788,2.9-5.845,4.12-1.541.916-3.874,2.122-3.123-.682a55.5,55.5,0,0,1,3.428-8.461c1.755-3.815,3.524-7.594,5.424-11.337.714-1.406,1.113-2.806,2.245-3.926,1.232-1.219,2.094-2.81,3.443-3.962C141.053,508.538,149.6,512.281,155.857,513.706Zm10.726,1.642a30.651,30.651,0,0,1-4.931,1.552c-1.4.458-2.7,1.273-4.209,1.333,1.371-1.029,2.549-2.428,4.1-3.21C163.277,514.144,164.856,514.784,166.583,515.348Zm68.074,6.775c-5.705-1.924-11.016-4.761-16.573-7.043-.959-.4-8.46-2.865-8.308-4.041,5.257-.963,10.671-2.616,15.94-.814,4.794,1.64,8.693,5.571,12.4,8.862.968.859,6.956,4.769,6.42,6.014-.371.863-3.256.628-3.938.451a5.142,5.142,0,0,1-2.077-1.35A11.366,11.366,0,0,0,234.657,522.123Zm-10.531-32.159c.866-.8,1.385-2.007,2.213-2.743,1.063-.946,2.779-.485,3.942.006,3.488,1.474,6.47,3.952,9.937,5.49a68.7,68.7,0,0,1,10.633,6.33c3.168,2.146,6.593,3.922,9.826,5.97,3.294,2.087,6.982,3.444,10.322,5.456,3.4,2.049,6.785,4.107,10.052,6.364,5.824,4.026,11.888,8.16,16.2,13.884a61.263,61.263,0,0,1,5.913,9.583c1.477,3,3.079,7.172,1.165,10.3-1.838,3-4.972,5.363-7.625,7.6a9.381,9.381,0,0,1-3.262,2.245,27.23,27.23,0,0,1-5.06.455,95.634,95.634,0,0,1-25.4-1.518c-8.275-1.5-16.584-2.342-24.923-3.386-4.7-.589-9.407-1.275-14.048-2.255-1.983-.419-4-.9-5.943-1.474-1.695-.5-3.12-1.6-4.863-2.032-7.4-1.847-15.86-2.553-23.183-5.66,6.48-2.693,13.367-4.32,20.009-6.558,6.99-2.355,13.817-4.331,21.185-5a59.814,59.814,0,0,0,10.832-2.326A72.162,72.162,0,0,1,252.716,529c1.587-.193,6.118.1,6.644-1.98.784-3.089-3.668-3.446-5.566-3.169-2.692.392-4.912,1.064-6.972-1.144-2.1-2.256-4.148-4.565-6.29-6.792-3.971-4.128-8.064-8.9-13.678-10.756-6.849-2.26-14.791-.115-21.624,1.17-7.218,1.357-14.424,2.657-21.507,4.63-2.933.817-6.715,2.617-9.759,2.328a50.664,50.664,0,0,1-9.3-1.642,16.77,16.77,0,0,1-3.564-1.793,42.769,42.769,0,0,0-4.818-2.127,42.044,42.044,0,0,0-10-3.2c-2.976-.458-6.136-.729-9.02.314a18.783,18.783,0,0,0-7.31,5.334,65.023,65.023,0,0,0-5.674,7.83c-.844,1.3-1.873,2.429-2.747,3.7-.734,1.065-1.162,2.248-1.939,3.283a33.952,33.952,0,0,0-3.969,7.97c-1.17,2.991-2.47,6.549-2.19,9.8a14.483,14.483,0,0,0,.691,4c.605,1.451,1.468,1.414,2.712,1.961,2.137.94,2.737,3.539,5.5,3.032,2.591-.475,4.838-2.609,6.727-4.311,2.464-2.217,4.821-4.555,7.179-6.885a54.976,54.976,0,0,0,6.726-7.854,32.321,32.321,0,0,1,2.243-3.366c1.14-1.284,2.42-1.439,3.969-1.95,13.537-4.473,27.139-8.787,41.1-11.74,3.345-.708,6.717-1.62,10-2.562,3.484-1,5.289.057,8.165,1.958,6.008,3.972,13.109,6.77,19.8,9.362,2.107.816,5.46.868,7.107,2.477-9.761,1.488-19.063,4.351-28.477,7.2-4.642,1.4-9.337,2.624-14,3.968s-9.144,3.087-13.741,4.6c-4.576,1.509-9.411,2.124-14.03,3.515a124.762,124.762,0,0,1-14.252,3.261c-4.887.873-9.741,1.879-14.645,2.66-2.245.357-4.49.728-6.711,1.22-2.173.481-4.272,1.633-6.456,1.9-9.751,1.194-19.312,3.852-29.026,5.355-7.253,1.122-19.871,2.687-24.575-4.59-4.73-7.318,1.073-15.854,6.25-21.087a68.921,68.921,0,0,1,10.626-8.66c4.06-2.725,7.965-5.667,12.026-8.388,9.189-6.157,19.153-11.179,29.025-16.127,4.739-2.375,9.317-4.922,13.927-7.528,2.287-1.294,3.554.793,5.362,2.212,1.422,1.116,4.035,3.867,6.025,2.6q.114.687.229,1.374l1.75-.8c.391,1.027.345,1.665,1.439,2.2.672.332,2.1.73,2.746.147q.2.607.392,1.216c.559-.043.668-1.644.773-2.019a6.845,6.845,0,0,0,3.973,2.968c.008-.092-.274-1.243-.262-1.25.534-.327,1.207,1.072,1.49,1.372.938.993,1.5.839,2.533.037.075.082.426,1,.477.981.224-.071.65-.882.7-.956-.065,1.066,1.994,1.281,2.721,1.052l-.489-.937c2.533-.338,3.527,2.353,5.959,2.216,1.8-.1.355-.494,1.373-1.264.888-.673,1.047.8,1.134.752a1.941,1.941,0,0,0,.394-.612c.329,1.26,2.947,2.39,2.676.319,1.03.411,1.762,1.1,2.9,1.24a20.942,20.942,0,0,0,4.247-.233,22.366,22.366,0,0,0,8.471-2.22,50.625,50.625,0,0,0,4.782-2.519c1.252-.817,3.628-3.3,5.295-2.229-.427-1.26,1.583-.092,1.647-1.715l.969.73c.193-.424.139-1.093.4-1.463.356-.508.53-.209.833-.495.34-.32.636-1.176,1.044-1.42s.913.048,1.365-.171c.687-.334,3.645-3.6,3.145-.8,1.271-.432.291-.827.449-1.675.319-1.7,1.1-.476,1.87-.328,1.266.243,1.241-.8,1.947-1.565.645-.7,1.858-1.007,1.44-2.214A1.451,1.451,0,0,1,224.126,489.964ZM147.77,453.691c-1,1.111-1.746.636-2.855.473q-.178-.6-.608-.165a3.06,3.06,0,0,1-1.061.372,22.169,22.169,0,0,0-2.745.469c.026-.3.339-.828.138-1.131a4.233,4.233,0,0,1-2.665,1.072c-.932.009-2.566-.7-3.339.149l-.072-.993a3.233,3.233,0,0,0-.988.757,2.088,2.088,0,0,0-.407-1.258c-.615,1.266-1.289,1.3-2.484.812.167.068-1.2-.732-1.145-.51-.431-1.817,6.376-1.667,7.091-1.739,1.784-.18,3.569-.284,5.356-.449,1.7-.156,2.96-.42,4.133.994C145.6,450.5,150.542,450.6,147.77,453.691ZM69.727,422.012c.188,3.089.875,6.371-.326,9.343A16.818,16.818,0,0,1,64.436,438c-4.248,3.192-7.848-.714-8.439-5.007-.616-4.478.605-9.949,4.461-12.71,2.3-1.65,4.535-1.535,7.187-.993.623.128,1.634.078,1.99.7C69.719,420.134,69.644,422.01,69.727,422.012Zm56.413,41.146a12.244,12.244,0,0,0-2.148,1.091c-.224.175-.3.573-.539.721-.434.268-1.054.09-1.507.311a21.871,21.871,0,0,1-2.175,1.227,34.458,34.458,0,0,0-3.728,1.838c-2.08,1.085-4.313,2.016-6.488,2.9-1.1.446-4.135,1.315-4.03,2.922-.245.067-.5-.471-1.009-.428-.7.059-1.634.873-2.365,1.073-1.367.374-2.425.407-2.425,2.15-.435-.3-.546-1.019-1.125-1.115-.652-.108-.926.6-1.447.814-.614.258-1.377.011-1.985.285a4.763,4.763,0,0,1-.887.736,3.371,3.371,0,0,1-.987-.031c-1.291.274-2.478.76-3.772,1.012-1.261.246-2.124.335-1.594,1.826-1.349.264-1.678-1.167-3.2-.643a42.045,42.045,0,0,1-5.556,1.494c-.993.2-2.03.645-3.031.75-.714.074-1.38-.181-2.082-.1a23.574,23.574,0,0,1-2.4.5,13.213,13.213,0,0,1-2.52-.281,5.653,5.653,0,0,0,.433.946c-.564-.118-.825-.8-1.3-.9-.5-.1-.952.413-1.37.3-.178-.049-.06-.6-.378-.7-.29-.1-.413.017-.7-.028a6.48,6.48,0,0,0-1.492.021c-.335.178,0,.511-.063.561-1.132.838-1.146.385-1.651-.49-.741-1.285-1.635-.474-2.983-.7-1.5-.251-2.685.412-4.163.318-1.594-.1-3.468-1.3-4.877-1.992a36.8,36.8,0,0,1-8.568-5.206,41.983,41.983,0,0,1-11.459-16.2C27.986,451.4,27.5,444.375,27.7,437.228a99.878,99.878,0,0,1,1.146-12.842c.466-2.922.564-8.114,3.858-9.445.566,6.842-1.221,13.813-.094,20.611.339,2.047,1.167,4.775,2.733,6.291,2.319,2.245,2.862-1,3.071-2.792.39-3.329,1.116-6.639,1.629-9.952s.876-6.66,1.589-9.937c.26-1.194,2.358-9.944,3.9-9.529-.311,6.365-1.139,12.62-1.171,19.008a53.223,53.223,0,0,0,.128,7.814c.19,1.31,1.383,5.154,3.435,4.833,1.9-.3-.189-3-.366-4.048-.469-2.763.129-6.2.567-8.945a36.27,36.27,0,0,1,5.7-14.847c2.706-3.884,6.872-7.582,11.891-6.9,2.145.293,3.818.826,4.9,2.784.845,1.537,4.176,3.283,2.246,5.207-1.757,1.752-4.6.35-6.552-.068a9.012,9.012,0,0,0-6.954,1.505c-3.431,2.4-5.387,6.7-6.025,10.732-.86,5.434,1.439,19.658,9.909,16.471,5.626-2.119,9.864-9.737,9.392-15.57-.189-2.334-1.1-6.767,2.128-7.4,4.138-.808,4.723,3.754,4.3,6.719-.609,4.312-2.888,8.322-5.5,11.731-2.272,2.972-4.916,4.83-7.65,7.284-.81.727-2.875,2.36-2.528,3.712.38,1.481,3.625,1.9,4.925,2.145,6.428,1.2,13.678.1,20.1-.744,13.19-1.727,26.207-5.981,37.023-13.8.437,4.84.988,9.663,1.191,14.52.1,2.358.123,4.75.393,7.094C127.18,460.315,127.779,462.33,126.14,463.158ZM89.566,480.02c-.518.271.042-1.367-.1-.825Q90.625,479.61,89.566,480.02Zm54.717-58.566c.822-.906,3.068-3.061,3.781-1.016.265-.872.3-2.163,1.323-.986.408-1.446,4.9-1.311,6.018-1.375,3.566-.2,7.147-.313,10.7-.667,7.3-.728,14.731-.352,22.06-.376a31.853,31.853,0,0,1,4.746.139c1.52.222,3.118.845,4.667.617a12.65,12.65,0,0,1,3.7-.419,42.7,42.7,0,0,0,5.056.326c7.572-.028,15.14.279,22.714.291,1.476,0,3.245-.286,4.629.341.513.232,1.074,1.006,1.466,1.091.449.1.182-.6.783-.288.806.424.182,1.726-.35,1.933.319-.124-.575-.246-.485-.25-.424.022-.786.348-1.242.327a3.74,3.74,0,0,1-1.833-.825c-.009.152.3,1.165-.053,1.216-.3.045-.584-.955-.614-1.187-1.694,1.494-3.49.661-5.592.85-1.491.135-4.6,1.129-5.641-.427a1.58,1.58,0,0,1-.4.869q-.445.68-.772-.116c-.073,0-.8.161-.812.159-.51-.04-1.171-.223-1.689-.268-.8-.068-.655.516-1.294.526-.349.005-1.24-.5-1.849-.531-1.054-.055-2.131.392-3.172.257-.716-.093-1.363-.676-2.066-.7-.875-.029-1.159.639-1.853-.3-.142-.039-.23.513-.287.523.014,0-.66.1-.739.128a4.752,4.752,0,0,1-.841.3c-.355.007-.547-.247-.922-.252-.621-.011-2.6.536-2.549-.613-2.215.821-4.107.5-6.381.7a8.591,8.591,0,0,1-2.693-.242,12.2,12.2,0,0,0-3.309.123c-1.192.058-1.568-.446-2.573-.9-.4-.18-.66-.417-1.146-.317-.278.057-.08.524-.162.556-.428.165-.726-.01-1.312.03-1.083.074-1.513.979-2.626.13.37-.045.739-.091,1.109-.135-1.063-.451-2.467-.681-2.21.961-.907-.128-.122-.745-.568-.967s-.945.149-1.507.332a10.787,10.787,0,0,1-4.267.156c-1.757-.1-5.868,1.336-7.127-.526-.037.392-.459,1.485-1.019,1.434-.183-.017.326-1.177.384-1.3-.289.615-1.606.731-2.255,1.05q.109-.5.218-.99c-.6.641-.9.25-1.6.464-.31.094-.758.733-1.024.772a1.276,1.276,0,0,0-1.164-.462,2.353,2.353,0,0,0-.933-.046c-1.245.09-2.38.782-3.618.311-1.071-.408-1.486-1.458-2.125.212l-.5-.89q-.311.483-.623.966c-.81-.531-.86-.838-1.793-.643a.8.8,0,0,1-.674-.037l-.165.49c-.022.412-.144.547-.366.408a1.5,1.5,0,0,1-.505-.306,10.3,10.3,0,0,1-2.069.12C146.006,422.169,144.4,421.322,144.283,421.454ZM163.175,410.4l.218.334c-1,.53-1.238.226-1.342-.837C162.541,409.9,162.625,410.766,163.175,410.4Zm.621-.624c.482.213,1.036.631,1.49.071C165.592,410.734,163.32,411.948,163.8,409.774Zm3.117.393c1.013.685-1.417.134-1.414.135A1.07,1.07,0,0,1,166.913,410.167Zm8.715-3.819c.348,1.753,1.306,1.7,2.853.889,2.256-1.189,2.637-3.136,2.794-5.461.151-2.229.424-3.091,2.722-2.626a18.958,18.958,0,0,0,4.579.007c1.726-.047,2.334.216,2.473,1.992a6.512,6.512,0,0,0,1.746,4.482,14.684,14.684,0,0,0,4.766,2.967,8.255,8.255,0,0,0,2.67.907c.376.033,2.332-.214,2.373.4.031.465-2.678,1.778-2.966,1.934a20.441,20.441,0,0,1-3.882,1.711,31.834,31.834,0,0,1-9.776.951c-5.273-.093-12.561-2.323-15.714-7Zm-.473-15.184a19.21,19.21,0,0,1-2.068-2.587,3.193,3.193,0,0,0-.938-.76c-.35-.221-.548.091-.84-.427-.755-1.339,1.575-3.223-.9-3.738-.836-.175-2.849.488-3.093-.71-.345-1.694,2.888-1.8,3.649-2.665,1.513-1.709.486-4.606,1.407-6.578.872-1.868,3.123-2.2,4.9-2.761,2.476-.782,4.981-1.235,7.495-1.861,1.757-.437,4.678-2.194,6.307-.642-2.515.559-1.053,1.435.624,1.93a28.832,28.832,0,0,0,5.879.936,22,22,0,0,0,6.091-.212c1.851-.374,3.918-1.982,5.859-1.57-1.077,1.872-4.284,2.895-6.234,3.385-.993.25-1.629.172-1.495,1.41.129,1.2,1.172,2.4,1.408,3.654a8.523,8.523,0,0,1-.55,4.731c-.579,1.531-.714,1.731-.208,3.194.789,2.277-.907,4.795-2.474,6.449C193.64,399.031,181.51,396.5,175.155,391.164Zm16.1-39.974c.026.068,0,.042,0,0Zm1.974,16.879c-.263.2-1.776.608-1.713.017C191.606,367.293,192.97,367.58,193.234,368.069Zm3.45-16.01c-.355-.265-1.35-.156-.623-1.159Zm-23.872-6.343a17.66,17.66,0,0,0,1.158-3.523c.126-.771-.124-1.652.954-1.773-1.374-.6-1.388-2.965-1.469-4.191-.112-1.689-.645-3.95.1-5.521.762-1.615,1.79-1.588,2.1.335.122.752-.343,1-.431,1.52-.172,1.038.171.81.84.02.277.8.383,2.01,1.507,1.959-.075-.217-.506-.7-.362-.966.221-.415,1.3.219,1.438.314.986.69,1.2,1.32.5,2.19.974.1.157.957.785,1.179.959.339.316-1.267.212-1.549a2.39,2.39,0,0,1,1.149.948,9.827,9.827,0,0,1,.593.991q.3.935,1.227.468c1.242.39,2.956.329,4.069,1.01.509.311.692.992,1.117,1.25.478.291,1.118.159,1.632.342-.188.427-.036.657.455.694a4.18,4.18,0,0,1,1.109.257,3.4,3.4,0,0,1,.872-.476.608.608,0,0,0,.9.276,4.451,4.451,0,0,1,2.423,1.3c.653.581.121.628.837.577.288-.021.792-.509,1.45-.414a4.9,4.9,0,0,1,1.1.35.974.974,0,0,0,1.211.123c.693.339.761.939,1.607,1.021.935.092.634-1.074,1.276.57.865-1.743,1.182,1.034,2.075,1.258.924.232,1.024-.517,1.816.3.237.245.224.651.49.911.437.427,1.027.341,1.406.923-.211-.325.05,1.149.046,1.1.059.651-.519,1.379.665,1.324-.013.068-.582.9-.693.8-.027-.1-.05-.191-.068-.288-.127.055-.184.844-.16.984.1.016.141-.059.123-.224-.2.609.1,1-.275,1.574a4.357,4.357,0,0,1-1.242.876c-.84.55-1.662,1.1-2.481,1.688-1.91,1.367-4.048,3.015-6.454,3.3,1.208-1.186,8.159-5.675,4.673-6.963a11.407,11.407,0,0,0-2.5-.515c-.841-.063-1.711.419-2.638.118-1.12-.362-.7-1.414-1.382-1.792-1.452-.8-1.109,1.083-1.566,1.576-.48-.5-.377-.749-1.135-.794s-.953.665-1.851.222c-1.237-.611-.583-1.827-2.338-1.856.03-.267.284-1.013-.051-1.222-.451.586-.1,1.241-.52,1.8a2.033,2.033,0,0,1-1,.6c-.778.214-.889.623-.762-.549-.576,1.039-2.345.612-3.4.507a24.093,24.093,0,0,1-5.167-1.042,15.353,15.353,0,0,1-3.576-2.171c-.473-.3-.7-.186-1.377-.372S172.5,346.536,172.812,345.716Zm3.608-18.393c.258-.156.444,2.165.131,2.6C175.978,329.015,174.963,327.686,176.42,327.323Zm.825-.926c.83-.751.253,1.189.1,1.515l-.922-.592C176.816,327.079,176.914,326.7,177.245,326.4Zm31.32-3.128c7.669,1.61,15.269,4.618,21.42,9.569a37.632,37.632,0,0,1,11.775,17.714c2.3,7.064,1.528,14.9-3.947,20.308-2.884,2.848-6.693,4.566-10.323,6.243-1.74.8-3.531,1.472-5.277,2.257-1.254.564-2.785,1.465-4.216,1.309.73-.768,1.789-.784,2.673-1.254a18.477,18.477,0,0,0,2.86-2.436c.913-.773,2.94-3.207,4.344-2.617-.195-1.3,1.282-1.9,1.948-2.754.7-.9.754-1.962,2.052-2.258-1.394-1.091-.967-3.147-.664-4.631a44.385,44.385,0,0,0,.72-5.572c.275-3.483.5-7.919-1.427-10.98-.624-.994-1.419-1.908-1.976-2.94a6.976,6.976,0,0,1-.523-3.7c-1.228.825-1.486-.857-2.005-1.677-.389-.615-.9-.958-1.026-1.732-.091-.563.52-.658.185-1.249a2.974,2.974,0,0,0-.783,1.238c-.379-.152.068-.68-.149-.852a6.068,6.068,0,0,0-.7-.276,7.619,7.619,0,0,1-.852-2.3c-.863.437-.7.386-1.663-.344a6.409,6.409,0,0,1-1.1-.911c-.372-.9.28-.368.1-.928-.524-1.607-3.463-1.3-3.7-3.712-1.433.91-1.98-.379-2.827-1.3-.869-.94-2.325-1.3-2.247-2.791l-1.353.462c.234-1.375-1.808-1.288-2.548-1.985A9.3,9.3,0,0,1,208.565,323.269Zm1.168,85.163c.711-.636.495.21.952.113.391-.083.469-.378.844-.469,1.545-.374,3.855.1,5.481.015,1.882-.093,5.108.3,6.005,2.5.54,1.326-.284.875-1.193.776a19.82,19.82,0,0,0-2.027.06,3.044,3.044,0,0,1-1.03-.016.653.653,0,0,1-.3-.465c-.969-.146-2,.427-3.073.456a5.178,5.178,0,0,1-3.8-1.2,1.794,1.794,0,0,1-1.507,1.037c-.02,0-.781-.3-.9-.335-.156-.04-.55.287-.851.193C208.875,410.244,208.953,409.129,209.733,408.432Zm97.9,7.663c.253-.88.465-1.771.7-2.657a38.514,38.514,0,0,1,8.027,14.585c.9,3.357,2.314,9.44-2,11.171-3.515,1.41-5.475-3.645-6.364-6.135A27.557,27.557,0,0,1,307.632,416.1Zm-158.3-63.114c.045-.01-2.291,1.349-1.521.249a3.216,3.216,0,0,1,2-.753Zm-2.247.575q-.405.342-.819.674l-.793-1.254C145.993,352.756,148.207,352.591,147.084,353.556ZM145.438,395.8c-.489-.331-.877-.155-1.024.4,0-.553.288-1.838.731-1.988.286-.1-.951-1.56-.6-1.942.884.506.355.991.613,1.644.117.295.468.574.545.8C145.831,395.1,146.358,396.418,145.438,395.8Zm-2.4-3.292c-.5.128.376.955.375,1.32,0,.276-.332.488-.469.866-.3.819.214,1.372-.627,2,0-1.8-1.2-6.548,1.11-7.423-1.128-.888-.2-1.914.683-.851C144.966,389.435,144.424,392.15,143.043,392.5Zm-1.205-7.079c-.455-1.613-1.824-2.177-3.388-2.082.059-.825.685-2.016,1.137-.527a2.731,2.731,0,0,1,.738-1.306c.714,2.238,4.271,3.474,2.056,5.9C142.2,386.746,142.024,386.083,141.838,385.424Zm-4.134-1.961c-8.238.6-19.8,2.306-26.395-4.008-4.3-4.117-4.069-10.529-.6-15.1a27.7,27.7,0,0,1,7.406-6.2,13.055,13.055,0,0,1,3.088-1.511.8.8,0,0,1,.526.125.9.9,0,0,1,.47-.618c.445-.238,1.078-.323,1.334-.817a15.936,15.936,0,0,0-.514,2.843l-.665-.775c-.185,1.748-2.007.69-3.094.908.716.991,1.229,1.352,1.29,2.662a4.546,4.546,0,0,0-2.686-1.95c.563,1.666.961,2.655.394,4.482-.685-.391-.731-1.331-1.562-1.556-.219,1.09-.258,2.3-.539,3.356-2.127-.971-1.92,1.643-1.066,2.936.455.688.678,1.485,1.083,2.145.994,1.62.239-.8,1.344-.687-.248,1.709-.334,1.879.916,3.13,1.221,1.22,1.854,2.913,3.159,4.06.378-.483-.216-.989-.268-1.451,1.214.2,1.783,1.422,2.951.343.509.992,1.06,2.085,2.28,2.289-.806-1.532,1.548-.493,2.152-.276.458.165,1.278.3,1.455.36.995.359.313-.285.917.892.886-.267,1.221-1,2.281-.381.862.505.864,1.371,1.061,2.258.206-.581.413-1.16.64-1.732a4.614,4.614,0,0,1,1.1,1.17C138.436,380.247,138.355,381.658,137.7,383.463Zm-11.566-28.92c.456-.32,1.013.106,1.525-.009.709-.158,1.112-.766,1.9-.831-.221.7-.635.639-.985,1.192-.119.189-.057.641-.163.75-.888.909-1.195.167-2.1-.522.079.831.238,1.093-.544,1.316a2.606,2.606,0,0,1-2.233-1.112C123.842,354.724,125.592,354.926,126.138,354.543Zm5.652-1.3c.769.074-.157,2.343-1.26.142A6.144,6.144,0,0,1,131.79,353.245Zm3.955-.438c1.213-.248,5.259-1.4,5.71.487.081-.047.381-1.113.521-.983a2.261,2.261,0,0,1,.581,1.936c-.678-1.411-.437-.172-.9-.268-.12-.026-.3.2-.606.106-.4-.121-.683-.968-.934-1.255-.419.6-.937,1.366-1.774,1.314-.593-.036-1.548-1.563-.78.108a3.559,3.559,0,0,0-1.475-.418c-.562.076-.854.631-1.381.72-1.168.2-1.345-.926-2.1-1.536A22.065,22.065,0,0,0,135.745,352.807Zm7.339-.019c.086-.387,1.147-.543,1.418-.42.659.3.415.695.294,1.353l-1.469-.7C144.058,354.2,142.734,354.374,143.084,352.788Zm205.477,68.924a37.964,37.964,0,0,0-.883-8.434c-.5-1.921-1.729-5.366-4.054-5.7-3.506-.5-5.447,6.426-6.429,8.8-.2-2.8-.025-5.78-1.083-8.438-.847-2.13-2.986-4.147-4.829-1.755-1.639,2.128-1.954,5.271-2.386,7.832-.559,3.319-.895,6.663-1.3,10-1.6-3.094-1.881-6.636-3.147-9.852a46.907,46.907,0,0,0-4.884-8.633,17.715,17.715,0,0,0-5.593-5.625c-2.015-1.174-5.54-2.443-7.462-.494-1.6,1.625-1.352,3.8-1.268,5.852.037.914.18,1.54-.623,2-.4.227-1.012.11-1.446.231a5.374,5.374,0,0,0-1.826.965c-4.146,3.081-6.057,8.634-6.649,13.585-.748,6.273,1.7,11.651,3.8,17.39.336.915,1.4,2.856,1.254,3.877-.162,1.119-1.566,1.148-2.514,1.171a75.271,75.271,0,0,1-8.7-.409c-6.78-.635-13.554-3.9-19.625-6.813-1.108-.532-2.675-.836-3.578-1.673-.851-.788-1.075-2.049-1.808-2.952-1.8-2.215-2.948-4.106-5.6-5.445-2.7-1.362-5.455-2.622-8.089-4.115-3.257-1.846-6.267-4.186-9.388-6.253-5.8-3.842-11.563-8.054-17.714-11.321-2.857-1.518-6.051-1.764-9.019-3.007a15.451,15.451,0,0,0-9.451-.448c-1.469.373-2.469,1.256-3.819,1.832-1.584.675-2.875-.07-4.268-.876-2.129-1.232-4.239-3.239-1.207-4.568a14.007,14.007,0,0,0,3.214-1.33,20.428,20.428,0,0,0,2.505-3.1c1.731-2.1,2.764-4.524,5.3-5.832,2.8-1.447,6.121-1.84,9.108-2.786,3.236-1.023,6.405-2.241,9.581-3.436,5.722-2.154,11.671-4.48,15.783-9.221a21.365,21.365,0,0,0,4.949-14.733c-.293-10.962-6.165-22.088-14.591-28.942-10.332-8.4-23.475-11.207-36.526-11.061-6.125.07-13.434.871-18.544,4.592-4.415,3.215-5.149,8.836-4.492,13.911.266,2.06,1.177,4.777-.276,6.592-.812,1.015-2.272,1.267-3.367,1.9a16.959,16.959,0,0,1-4.147,1.978c-6.62,1.788-13.593,1.165-20.362,1.067-11.276-.165-22.833,2.887-31.245,10.833-6.792,6.415-8.829,18.513-.545,24.767,6.693,5.053,17.192,4.5,25.084,3.616,2.448-.274,4.131-.671,4.136,2.323.006,3.271-.535,6.689.3,9.9,1.315,5.057,6.174,5.178,10.47,4.089a47.041,47.041,0,0,0,6.611-2.344c3.157-1.327,6.051-3.278,9.169-4.6,2.114-.9,3.7,2.006,5.572-.007.347-.372.411-.927.933-1.117.819-.3,2.193.747,2.911,1.078,1.076.5,2.16.859,2.59,2.052a6.89,6.89,0,0,1-.16,3.989c-.836,2.392-3.089,1.919-5.146,1.759-3.588-.279-7.151-.871-10.737-1.12a15.827,15.827,0,0,0-9.006,2.326c-5.829,3.332-10.6,8.632-15.652,12.991a96.742,96.742,0,0,1-7.944,6.621,25.986,25.986,0,0,0-3.631,2.686c-1.061,1.047-1.177,2-1.54,3.392-.646,2.481-3.854,3.694-5.86,5a42.108,42.108,0,0,1-9.022,4.293A125.268,125.268,0,0,1,89.832,445.9c-3.447.608-6.864,1.007-10.345,1.335-3,.283-6.19,1.207-9.186.469.863-1.4,2.392-2.24,3.583-3.322a26.413,26.413,0,0,0,4-4.76A23.05,23.05,0,0,0,82.1,428.663c.328-3.64-.048-7.994-2.245-11.069-.759-1.062-2.259-1.351-2.938-2.308s-.418-2.589-.787-3.7a17.974,17.974,0,0,0-6.191-7.954,12.129,12.129,0,0,0-9.647-1.505c-5.706,1.717-9.211,7.814-11.822,12.743-1.426-3,.962-7.454-1.824-9.912-2.35-2.073-4.215,1.943-5,3.661-3.69,8.066-4.528,16.621-6.074,25.251-.63-.621-.307-2.215-.248-2.955.11-1.379.1-2.732.1-4.117.007-3.5.658-7.012.36-10.507-.172-2.02-.816-6.28-3.752-5.609-2.489.569-4.049,4.07-4.831,6.21a25.049,25.049,0,0,0-1.319,9.4c.078,3.6-.609,7.147-.775,10.745-.323,6.989,0,13.917,2,20.662A44.294,44.294,0,0,0,66.064,488.87a59.366,59.366,0,0,0,10.147-.538c3.357-.35,6.733-.512,10.084-.923a71.646,71.646,0,0,0,21.522-6.458c3.571-1.674,6.929-3.729,10.442-5.514a18.689,18.689,0,0,0,3.564-2.607,3.378,3.378,0,0,1,2.879-1.064c-.4-1.064.764-1.392,1.28-2.065l-.087.979q.591-1.281,1.1.025c.336-.975.584-1.978.989-2.928,1.548.783,1.418,2.646,3.488,1.286,1.705-1.12,3.273-2.44,5.011-3.537,3.96-2.5,7.374-5.751,11.345-8.222a54.136,54.136,0,0,1-.152,7.228,40.764,40.764,0,0,1-1.832,6.583c-1.246,4.021-1.333,8.318-2.714,12.3-.571,1.648-2.06,3.027-2.487,4.631-.435,1.637.57,2.949-1.115,4.024a18.738,18.738,0,0,1-3.988,1.536c-2.006.7-3.911,1.686-5.864,2.523-9.161,3.926-18.1,7.924-26.585,13.2a238.2,238.2,0,0,0-23.632,16.13c-6.422,5.162-12.914,11.837-14.477,20.259-1.517,8.169,2.525,16.937,10.64,19.627,4.22,1.4,8.99,1.226,13.384,1.286,4.729.066,9.739-1.074,14.388-1.9,4.91-.87,9.735-2.233,14.659-3.011,4.724-.746,9.057-2.414,13.7-3.441,4.949-1.1,10.026-1.689,15-2.673,2.241-.444,4.436-1.1,6.682-1.508,2.46-.449,4.947-.618,7.382-1.213,4.724-1.155,9.248-3.016,13.993-4.09,2.133-.483,4.233-1.13,6.367-1.581,1.965-.416,3.5-1.52,5.465-.613,1.591.733,2.86,1.989,4.365,2.864,1.953,1.135,4.012,2.152,6.048,3.129a115.75,115.75,0,0,0,12.61,4.793,122.76,122.76,0,0,0,13.559,4.336c4.771,1.048,9.639,1.34,14.443,2.169a179.3,179.3,0,0,0,29.584,2.521c5.049.032,10.1-.567,15.134-.5,4.458.063,8.335,1.068,12.412-1.3,6.515-3.788,14.072-9.493,13.912-17.78-.146-7.506-4.648-14.677-8.871-20.6-5.129-7.189-12.441-12.251-19.607-17.21-7.638-5.285-16.217-8.937-24.245-13.55-4.105-2.359-7.891-4.9-12.349-6.574-2.128-.8-4.2-1.728-6.307-2.59-1.692-.693-4.136-1.076-5.584-2.226-.9-.718-.99-1.8-1.229-2.872a60.106,60.106,0,0,0-2.164-6.877,70.567,70.567,0,0,1-3.255-13.487c-.637-4.4-2.05-8.969-1.318-13.437,4.814,4.657,9.762,9.134,14.688,13.668,1.846,1.7,3.658,3.434,5.514,5.123,1.393,1.268,3.135,3.151,5.077,3.527,2.48.481,1.575-2.263,3.277-2.688,1.041-.26,4.18,2.385,5,2.907,5.216,3.311,10.991,5.41,16.728,7.664,6.015,2.363,12.2,4.462,18.675,5.057a49.507,49.507,0,0,0,17.863-1.784c11.49-3.245,19.945-10.942,26.151-20.919C343.833,448.6,348.978,435.284,348.561,421.712Z" fill="#1d1d1d" fill-rule="evenodd"/>
    <path id="Caminho_206" data-name="Caminho 206" d="M172.946,396.927s-.02.041-.02.041C172.948,396.953,172.954,396.939,172.946,396.927Z" fill="#1d1d1d" fill-rule="evenodd"/>
    <path id="Caminho_207" data-name="Caminho 207" d="M173.5,397.074a4.03,4.03,0,0,0-.279-1.064c-.38.6-.72.861-.221,1.5Z" fill="#1d1d1d" fill-rule="evenodd"/>
    <path id="Caminho_208" data-name="Caminho 208" d="M200,483.264c.425-.452-.319-.623-.6-.629.028.486-.212,1.65.452,1.875A1.327,1.327,0,0,1,200,483.264Z" fill="#1d1d1d" fill-rule="evenodd"/>
    <path id="Caminho_209" data-name="Caminho 209" d="M188.772,388.526c-.731,1.412.884,1.85,1.82,1.168a4.4,4.4,0,0,0,1.235-2.659c.374-2.715-1.525-5.3-2.473-7.707-.244-.622-.58-2.758-1.368-2.816-.9-.068-.972,1.9-.984,2.406a13.8,13.8,0,0,0,.845,4.533C188.359,385.008,189.627,386.877,188.772,388.526Z" fill="#1d1d1d" fill-rule="evenodd"/>
    <path id="Caminho_210" data-name="Caminho 210" d="M192.25,382.863c2.811,2.5,5.059-1.666,4.863-4.132-.048-.611-.461-2.863-1.62-2.044-.582.412-.086,1.751-.363,2.338-1.344,2.849-2.639-1.57-3.544-1.917-1.1-.422-1.212,1.025-1.211,1.8A5.345,5.345,0,0,0,192.25,382.863Z" fill="#1d1d1d" fill-rule="evenodd"/>
    <path id="Caminho_211" data-name="Caminho 211" d="M182.047,383.251a8.932,8.932,0,0,0,1.566-3.69c.14-1.941-.991-1.779-1.922-.424-.658.956-1.151,2.579-2.6,2.176-1.793-.5-1.245-2.908-2.248-4.053C174.306,380.664,179.1,387.89,182.047,383.251Z" fill="#1d1d1d" fill-rule="evenodd"/>
    <path id="Caminho_212" data-name="Caminho 212" d="M185.845,393.667c1.048.227,3.781.143,2.834-1.462C187.485,390.184,183.514,393.163,185.845,393.667Z" fill="#1d1d1d" fill-rule="evenodd"/>
    <path id="Caminho_213" data-name="Caminho 213" d="M222.562,333.385c.192-.571-.072-.675-.529-1.125C221.6,332.66,222.154,333.08,222.562,333.385Z" fill="#1d1d1d" fill-rule="evenodd"/>
    <path id="Caminho_214" data-name="Caminho 214" d="M242.11,436.866q1.038.165.668-1.1Q241.141,435.662,242.11,436.866Z" fill="#1d1d1d" fill-rule="evenodd"/>
    <path id="Caminho_215" data-name="Caminho 215" d="M204.354,348.591c.762.349.47,1.064.457,1.669.393-.427,1.187-1.207.864-1.821C205.177,347.494,203.876,348.373,204.354,348.591Z" fill="#1d1d1d" fill-rule="evenodd"/>
    <path id="Caminho_216" data-name="Caminho 216" d="M178.375,336.691q-.174-.341-.349-.681c-.473.38-1.205,1.385-.452,1.875A7.2,7.2,0,0,0,178.375,336.691Z" fill="#1d1d1d" fill-rule="evenodd"/>
    <path id="Caminho_217" data-name="Caminho 217" d="M187.526,343.361c.949.745.494-1.539.465-1.726C187.85,341.9,187.047,342.986,187.526,343.361Z" fill="#1d1d1d" fill-rule="evenodd"/>
    <path id="Caminho_218" data-name="Caminho 218" d="M187,342.2q-.108-.283-.218-.567c-.384.356-.856,1.083-.22,1.5A5.31,5.31,0,0,0,187,342.2Z" fill="#1d1d1d" fill-rule="evenodd"/>
    <path id="Caminho_219" data-name="Caminho 219" d="M193.027,350.045l.232.215a.714.714,0,0,0-.634-1.125A1.611,1.611,0,0,0,193.027,350.045Z" fill="#1d1d1d" fill-rule="evenodd"/>
    <path id="Caminho_220" data-name="Caminho 220" d="M167.6,421.073a6.081,6.081,0,0,0,1.026-.877c-1.114-.681-.446.795-1.787-.111C166.549,420.484,167.021,421.378,167.6,421.073Z" fill="#1d1d1d" fill-rule="evenodd"/>
    <path id="Caminho_221" data-name="Caminho 221" d="M214.413,483.01c.424-.65.5-.632-.078-1.125C213.853,482.688,213.9,482.482,214.413,483.01Z" fill="#1d1d1d" fill-rule="evenodd"/>
    <path id="Caminho_222" data-name="Caminho 222" d="M125.875,379.539l.692.721c.108-.315.695-1.2.3-1.5Z" fill="#1d1d1d" fill-rule="evenodd"/>
    <path id="Caminho_223" data-name="Caminho 223" d="M134.078,381.918c-.368-.061-1.249-.33-1.453.013C133.164,382.372,134.379,381.969,134.078,381.918Z" fill="#1d1d1d" fill-rule="evenodd"/>
  </g>
</svg>
