<svg xmlns="http://www.w3.org/2000/svg" width="205.238" height="42" viewBox="0 0 205.238 42">
  <g id="Grupo_46" data-name="Grupo 46" transform="translate(-27 -244)">
    <path id="Caminho_39" data-name="Caminho 39" d="M65.918,285.821a14.581,14.581,0,0,1-9.435-7.409c-1.3-2.752-1.421-4.082-1.3-13.063.091-7.953.121-8.528.786-10.16,1.875-4.718,6.169-7.651,11.642-8.014,6.985-.453,12.731,3.6,14.091,9.919.242,1.118.333,4.354.272,10.13-.121,8.043-.151,8.527-.816,10.221a14.023,14.023,0,0,1-8.134,7.741A15.679,15.679,0,0,1,65.918,285.821Zm-.665-2.389a11.768,11.768,0,0,1-7.076-6.35c-.7-1.512-.817-2.117-.877-5.625l-.091-3.931.7.877c.363.514,1.361,1.724,2.208,2.691,5.231,6.2,6.895,8.86,7.227,11.612C67.521,284.188,67.49,284.188,65.253,283.432Zm4.506.242c-.333-.575,1.028-4.385,2.238-6.229a44.386,44.386,0,0,1,3.3-4.234c1.149-1.3,2.6-3.054,3.236-3.871.635-.846,1.209-1.6,1.27-1.663a20.338,20.338,0,0,1,.061,3.78c-.091,3.568-.181,4.082-.968,5.806a13.066,13.066,0,0,1-4.989,5.322C72.3,283.432,69.94,284.037,69.758,283.674Zm-3.3-7.923a50.258,50.258,0,0,0-3.356-4.294c-4.415-5.11-5.866-7.862-5.866-11.007,0-3.961,3.9-6.653,7.227-4.959,1.361.665,2.3,2.389,2.782,4.989l.363,2.087-1.875,1.844-1.845,1.875,1.814,1.9,1.814,1.9-.151,3.478-.151,3.477Zm-5.9-13.94a2.505,2.505,0,0,1,.181-3.508,2.414,2.414,0,0,1,4.052,1.845A2.491,2.491,0,0,1,60.565,261.811Zm9.072,11.672v-3.568l1.814-1.814,1.814-1.784-1.875-1.875-1.845-1.875.333-1.9a14.04,14.04,0,0,1,1.028-3.236c2.3-4.475,8.981-2.358,8.981,2.843.03,3.266-1.451,6.168-5.413,10.674-1.179,1.361-2.752,3.3-3.478,4.294l-1.361,1.814Zm3.326-11.763a2.413,2.413,0,1,1,4.233-1.572C77.2,262.325,74.234,263.414,72.964,261.72ZM67.642,267.1l-.756-.847.877-.816.847-.817.816.907.816.938-.907.756-.907.756Zm-.423-12.126a4.305,4.305,0,0,0-1.421-1.119,7.943,7.943,0,0,0-5.685-.6l-.907.242,1.058-1.089a13.254,13.254,0,0,1,5.957-3.084l1.3-.181V252.2a18.483,18.483,0,0,1-.151,3.084C67.279,255.279,67.218,255.128,67.218,254.977Zm2.419-2.782v-3.054l1.27.181a13.517,13.517,0,0,1,5.987,3.084l1.058,1.089-.907-.242c-2.449-.665-5.352-.06-6.8,1.421C69.637,255.279,69.637,255.279,69.637,252.2Z" fill="#020202" fill-rule="evenodd"/>
    <path id="Caminho_40" data-name="Caminho 40" d="M91.651,278.382a9.433,9.433,0,0,1-6.5-6.108,23.237,23.237,0,0,1,0-10.4,9.278,9.278,0,0,1,4.868-5.685c2.026-1.058,2.177-1.058,5.564-1.058,3.236,0,3.659.06,5.232.816a5.093,5.093,0,0,1,3.2,4.264,4.008,4.008,0,0,1-4.143,4.718c-2.54,0-3.992-1.361-3.992-3.72a4.38,4.38,0,0,1,2.3-3.991l1.179-.7-1.089-.212c-2.449-.453-4.294,1.422-5.11,5.111-.514,2.358-.514,7.257,0,8.739,1.451,4.2,6.35,5.02,9.495,1.633.635-.635.938-.817,1.18-.575.484.484-.968,3.327-2.51,4.929a9.2,9.2,0,0,1-2.54,1.815A12.491,12.491,0,0,1,91.651,278.382Z" fill="#020202" fill-rule="evenodd"/>
    <path id="Caminho_41" data-name="Caminho 41" d="M111.428,278.412a5.347,5.347,0,0,1-2.933-3.145c-.121-.453-.3-4.838-.363-9.8l-.151-8.981H106.5c-1.119,0-1.482-.121-1.482-.454,0-.363.363-.453,1.512-.453h1.512v-5.111l1.724-.181a22.346,22.346,0,0,0,3.568-.786c1-.333,2.026-.7,2.328-.787.484-.151.545.121.545,3.327v3.538h2.116c1.663,0,2.117.09,2.117.453,0,.333-.454.454-2.117.454h-2.116v9.495c0,9.314,0,9.525.6,9.858.514.272.877.212,1.875-.3,1.9-1.028,2.177-.332.484,1.3A7.6,7.6,0,0,1,111.428,278.412Z" fill="#020202" fill-rule="evenodd"/>
    <path id="Caminho_42" data-name="Caminho 42" d="M126.547,278.412a4.944,4.944,0,0,1-3.054-3.78,71.249,71.249,0,0,1-.332-8.769,57.269,57.269,0,0,0-.333-8.044,2.261,2.261,0,0,0-1.21-1.149c-1.9-.726-1-1,3.72-1.209,2.54-.091,4.9-.212,5.231-.273.575-.06.6.121.665,10.04.091,9.1.152,10.16.605,10.674.756.847,2.722.545,3.629-.514.665-.786.695-.937.695-9.071,0-7.893-.03-8.286-.635-9.042a2.013,2.013,0,0,0-1.209-.786.523.523,0,0,1-.575-.424c0-.332,1.028-.453,4.748-.574a41.459,41.459,0,0,0,5.292-.393c.484-.182.544.393.544,9.948,0,6.925.091,10.373.333,10.917a2.274,2.274,0,0,0,1.209,1.028c.484.181.877.514.877.726,0,.332-.695.423-3.2.453-1.784,0-4.143.121-5.292.242l-2.087.212v-2.57l-1.058.937A9.767,9.767,0,0,1,126.547,278.412Z" fill="#020202" fill-rule="evenodd"/>
    <path id="Caminho_43" data-name="Caminho 43" d="M199.726,278.2a5.207,5.207,0,0,1-3.054-6.048c.575-2.54,2.026-3.72,6.713-5.413a16.008,16.008,0,0,0,3.72-1.875c1-.877,1.028-.907,1.028-3.6,0-4.627-1.27-6.079-4.476-5.2-.907.242-.846.484.212,1.089a4.028,4.028,0,0,1,1.542,4.234,3.835,3.835,0,0,1-2.994,2.63,2.64,2.64,0,0,1-2.388-.181,3.579,3.579,0,0,1-2.238-3.326c-.061-3.508,3.477-5.564,9.586-5.534,4.808,0,7.5,1.33,8.255,4.082a71.087,71.087,0,0,1,.363,9.072,69.071,69.071,0,0,0,.272,8.316c.242.363.393.363.937.03.515-.3.756-.3,1-.061.908.908-3.145,2.3-5.957,2.057-2.177-.212-3.084-.787-4.022-2.6a4.744,4.744,0,0,0-1.239.847C204.958,278.321,201.692,279.017,199.726,278.2Zm5.383-3.871c-.484-.484-.6-1.028-.6-2.449,0-2.147.454-3.206,2.3-5.2l1.331-1.421v4.536c0,4.2-.061,4.506-.6,4.808A1.9,1.9,0,0,1,205.109,274.33Z" fill-rule="evenodd"/>
    <path id="Caminho_44" data-name="Caminho 44" d="M27,277.656c0-.453.181-.605.726-.605,1.573,0,1.693-.6,1.693-9.767,0-9.253-.181-10.311-1.663-10.674-.423-.121-.756-.363-.756-.575,0-.272,1.21-.423,4.6-.544a39.6,39.6,0,0,0,5.141-.393c.454-.182.544,0,.544,1.24v1.451l.817-.756c1.693-1.6,2.722-1.9,6.018-1.9,2.631,0,3.205.06,3.931.6,2.268,1.693,2.54,3.054,2.54,12.821,0,6.744.03,7.53.514,7.953a3.168,3.168,0,0,0,1.149.575.674.674,0,0,1,.6.574c0,.363-.937.454-6.139.454-5.715.03-6.108,0-6.108-.514a.5.5,0,0,1,.575-.545,1.166,1.166,0,0,0,.907-.6c.212-.363.3-3.871.333-9.344,0-9.828,0-9.707-2.117-9.707a2.891,2.891,0,0,0-2.873,2.449c-.121.545-.151,4.445-.121,8.618.121,7.953.212,8.588,1.512,8.588a.535.535,0,0,1,.575.605c0,.575-.212.6-6.2.6C27.181,278.261,27,278.231,27,277.656Z" fill="#020202" fill-rule="evenodd"/>
    <path id="Caminho_45" data-name="Caminho 45" d="M148.32,277.717a.922.922,0,0,1,.756-.635c1.512-.212,1.6-.726,1.6-9.919a74.078,74.078,0,0,0-.332-9.344,2.264,2.264,0,0,0-1.21-1.149c-1.9-.726-1-1,3.719-1.209,2.541-.091,4.9-.212,5.232-.273.484-.06.6.152.756,1.089l.151,1.149.756-.816a5.322,5.322,0,0,1,4.233-1.633c2.843,0,4.234,1.451,4.234,4.445a4.063,4.063,0,0,1-4.989,4.173c-3.055-.575-3.9-3.9-1.6-6.441.363-.363.544-.665.423-.665a4.975,4.975,0,0,0-2.6,1.754c-.6.846-.6,1.27-.6,9.041,0,9.253,0,9.344,2.268,9.707.816.151,1.209.363,1.27.726.06.484-.454.544-7.016.544C148.743,278.261,148.259,278.2,148.32,277.717Z" fill="#020202" fill-rule="evenodd"/>
    <path id="Caminho_46" data-name="Caminho 46" d="M169.245,277.959c-.242-.454.121-.908.756-.908a1.881,1.881,0,0,0,1.058-.483c.394-.424.484-1.724.484-9.556v-9.041l-.756-.756a2.661,2.661,0,0,0-1.209-.726.44.44,0,0,1-.454-.424c0-.332,1.028-.453,4.748-.574a41.459,41.459,0,0,0,5.292-.393c.453-.182.544,0,.544,1.24v1.451l.968-.937c1.33-1.27,3.175-1.875,5.805-1.875,2.813,0,4.6.816,5.474,2.57.544,1.089.6,1.966.756,9.828.151,9.283.211,9.676,1.693,9.676.484,0,.726.152.726.514,0,.515-.454.545-6.2.545-4.959,0-6.2-.061-6.2-.393,0-.212.332-.514.756-.7a2.121,2.121,0,0,0,1.058-1.058,83.18,83.18,0,0,0,.272-8.86c0-9.314-.03-9.526-2.026-9.677a2.285,2.285,0,0,0-2.207.817l-.877.907V267.5c0,5.2.091,8.588.3,8.951a1.167,1.167,0,0,0,.907.6.531.531,0,0,1,.6.605c0,.575-.211.6-6.048.6C171.755,278.261,169.336,278.14,169.245,277.959Z" fill-rule="evenodd"/>
    <path id="Caminho_47" data-name="Caminho 47" d="M219.442,277.959c-.242-.454.121-.908.756-.908a1.881,1.881,0,0,0,1.058-.483c.424-.424.484-2.208.484-15,0-8.89-.121-14.727-.3-15.059a2.669,2.669,0,0,0-1.24-.877c-1.784-.635-.756-.937,3.508-1.089a48.529,48.529,0,0,0,5.2-.332l1-.212v15.845c0,17.116-.03,17.025,1.572,17.237a.922.922,0,0,1,.756.635c.061.484-.393.544-6.259.544C222.043,278.261,219.533,278.14,219.442,277.959Z" fill-rule="evenodd"/>
  </g>
</svg>
